<svg width="158" height="56" viewBox="0 0 158 56" fill="none" xmlns="http://www.w3.org/2000/svg">
<path d="M83.285 30.15V34H65.225V30.955L74.955 21.715C76.0517 20.665 76.7867 19.755 77.16 18.985C77.5567 18.1917 77.755 17.41 77.755 16.64C77.755 15.4967 77.37 14.6217 76.6 14.015C75.83 13.4083 74.6983 13.105 73.205 13.105C70.7083 13.105 68.795 13.9567 67.465 15.66L64.28 13.21C65.2367 11.9267 66.52 10.935 68.13 10.235C69.7633 9.51167 71.5833 9.15 73.59 9.15C76.25 9.15 78.3733 9.78 79.96 11.04C81.5467 12.3 82.34 14.015 82.34 16.185C82.34 17.515 82.06 18.7633 81.5 19.93C80.94 21.0967 79.8667 22.4267 78.28 23.92L71.735 30.15H83.285ZM89.0179 28.435C89.8346 28.435 90.5112 28.7033 91.0479 29.24C91.5846 29.7767 91.8529 30.4767 91.8529 31.34C91.8529 31.7133 91.7946 32.11 91.6779 32.53C91.5846 32.9267 91.3746 33.5333 91.0479 34.35L89.2629 39.285H86.4279L87.8279 33.93C87.3146 33.72 86.9062 33.3933 86.6029 32.95C86.3229 32.4833 86.1829 31.9467 86.1829 31.34C86.1829 30.4767 86.4512 29.7767 86.9879 29.24C87.5246 28.7033 88.2012 28.435 89.0179 28.435ZM112.765 9.5V12.545L103.245 34H98.3801L107.585 13.35H97.9601V17.515H93.7251V9.5H112.765Z" fill="black"/>
<path d="M127.54 34.14C126.433 34.14 125.44 33.9067 124.56 33.44C123.68 32.9733 122.993 32.3267 122.5 31.5C122.007 30.66 121.76 29.7133 121.76 28.66C121.76 27.6067 122.007 26.6667 122.5 25.84C122.993 25.0133 123.673 24.3667 124.54 23.9C125.42 23.4333 126.42 23.2 127.54 23.2C128.593 23.2 129.513 23.4133 130.3 23.84C131.1 24.2667 131.7 24.88 132.1 25.68L130.18 26.8C129.873 26.3067 129.487 25.94 129.02 25.7C128.567 25.4467 128.067 25.32 127.52 25.32C126.587 25.32 125.813 25.6267 125.2 26.24C124.587 26.84 124.28 27.6467 124.28 28.66C124.28 29.6733 124.58 30.4867 125.18 31.1C125.793 31.7 126.573 32 127.52 32C128.067 32 128.567 31.88 129.02 31.64C129.487 31.3867 129.873 31.0133 130.18 30.52L132.1 31.64C131.687 32.44 131.08 33.06 130.28 33.5C129.493 33.9267 128.58 34.14 127.54 34.14ZM144.145 28.72C144.145 28.8933 144.132 29.14 144.105 29.46H135.725C135.872 30.2467 136.252 30.8733 136.865 31.34C137.492 31.7933 138.265 32.02 139.185 32.02C140.358 32.02 141.325 31.6333 142.085 30.86L143.425 32.4C142.945 32.9733 142.338 33.4067 141.605 33.7C140.872 33.9933 140.045 34.14 139.125 34.14C137.952 34.14 136.918 33.9067 136.025 33.44C135.132 32.9733 134.438 32.3267 133.945 31.5C133.465 30.66 133.225 29.7133 133.225 28.66C133.225 27.62 133.458 26.6867 133.925 25.86C134.405 25.02 135.065 24.3667 135.905 23.9C136.745 23.4333 137.692 23.2 138.745 23.2C139.785 23.2 140.712 23.4333 141.525 23.9C142.352 24.3533 142.992 25 143.445 25.84C143.912 26.6667 144.145 27.6267 144.145 28.72ZM138.745 25.2C137.945 25.2 137.265 25.44 136.705 25.92C136.158 26.3867 135.825 27.0133 135.705 27.8H141.765C141.658 27.0267 141.332 26.4 140.785 25.92C140.238 25.44 139.558 25.2 138.745 25.2ZM151.319 29.72H149.379V34H146.879V23.32H149.379V27.64H151.379L154.539 23.32H157.219L153.339 28.46L157.479 34H154.539L151.319 29.72Z" fill="black"/>
<path d="M67.972 53.072C67.324 53.072 66.744 52.9 66.232 52.556C65.728 52.212 65.332 51.72 65.044 51.08C64.764 50.432 64.624 49.672 64.624 48.8C64.624 47.928 64.764 47.172 65.044 46.532C65.332 45.884 65.728 45.388 66.232 45.044C66.744 44.7 67.324 44.528 67.972 44.528C68.62 44.528 69.196 44.7 69.7 45.044C70.212 45.388 70.612 45.884 70.9 46.532C71.188 47.172 71.332 47.928 71.332 48.8C71.332 49.672 71.188 50.432 70.9 51.08C70.612 51.72 70.212 52.212 69.7 52.556C69.196 52.9 68.62 53.072 67.972 53.072ZM67.972 52.28C68.46 52.28 68.888 52.144 69.256 51.872C69.632 51.6 69.924 51.204 70.132 50.684C70.34 50.164 70.444 49.536 70.444 48.8C70.444 48.064 70.34 47.436 70.132 46.916C69.924 46.396 69.632 46 69.256 45.728C68.888 45.456 68.46 45.32 67.972 45.32C67.484 45.32 67.052 45.456 66.676 45.728C66.308 46 66.02 46.396 65.812 46.916C65.604 47.436 65.5 48.064 65.5 48.8C65.5 49.536 65.604 50.164 65.812 50.684C66.02 51.204 66.308 51.6 66.676 51.872C67.052 52.144 67.484 52.28 67.972 52.28ZM72.7591 49.376H75.9031V50.12H72.7591V49.376ZM79.3739 44.6V53H78.5099V45.368H76.5299V44.6H79.3739ZM84.7298 53.072C84.0818 53.072 83.5018 52.9 82.9898 52.556C82.4858 52.212 82.0898 51.72 81.8018 51.08C81.5218 50.432 81.3818 49.672 81.3818 48.8C81.3818 47.928 81.5218 47.172 81.8018 46.532C82.0898 45.884 82.4858 45.388 82.9898 45.044C83.5018 44.7 84.0818 44.528 84.7298 44.528C85.3778 44.528 85.9538 44.7 86.4578 45.044C86.9698 45.388 87.3698 45.884 87.6578 46.532C87.9458 47.172 88.0898 47.928 88.0898 48.8C88.0898 49.672 87.9458 50.432 87.6578 51.08C87.3698 51.72 86.9698 52.212 86.4578 52.556C85.9538 52.9 85.3778 53.072 84.7298 53.072ZM84.7298 52.28C85.2178 52.28 85.6458 52.144 86.0138 51.872C86.3898 51.6 86.6818 51.204 86.8898 50.684C87.0978 50.164 87.2018 49.536 87.2018 48.8C87.2018 48.064 87.0978 47.436 86.8898 46.916C86.6818 46.396 86.3898 46 86.0138 45.728C85.6458 45.456 85.2178 45.32 84.7298 45.32C84.2418 45.32 83.8098 45.456 83.4338 45.728C83.0658 46 82.7778 46.396 82.5698 46.916C82.3618 47.436 82.2578 48.064 82.2578 48.8C82.2578 49.536 82.3618 50.164 82.5698 50.684C82.7778 51.204 83.0658 51.6 83.4338 51.872C83.8098 52.144 84.2418 52.28 84.7298 52.28ZM92.6751 53.072C92.0271 53.072 91.4471 52.9 90.9351 52.556C90.4311 52.212 90.0351 51.72 89.7471 51.08C89.4671 50.432 89.3271 49.672 89.3271 48.8C89.3271 47.928 89.4671 47.172 89.7471 46.532C90.0351 45.884 90.4311 45.388 90.9351 45.044C91.4471 44.7 92.0271 44.528 92.6751 44.528C93.3231 44.528 93.8991 44.7 94.4031 45.044C94.9151 45.388 95.3151 45.884 95.6031 46.532C95.8911 47.172 96.0351 47.928 96.0351 48.8C96.0351 49.672 95.8911 50.432 95.6031 51.08C95.3151 51.72 94.9151 52.212 94.4031 52.556C93.8991 52.9 93.3231 53.072 92.6751 53.072ZM92.6751 52.28C93.1631 52.28 93.5911 52.144 93.9591 51.872C94.3351 51.6 94.6271 51.204 94.8351 50.684C95.0431 50.164 95.1471 49.536 95.1471 48.8C95.1471 48.064 95.0431 47.436 94.8351 46.916C94.6271 46.396 94.3351 46 93.9591 45.728C93.5911 45.456 93.1631 45.32 92.6751 45.32C92.1871 45.32 91.7551 45.456 91.3791 45.728C91.0111 46 90.7231 46.396 90.5151 46.916C90.3071 47.436 90.2031 48.064 90.2031 48.8C90.2031 49.536 90.3071 50.164 90.5151 50.684C90.7231 51.204 91.0111 51.6 91.3791 51.872C91.7551 52.144 92.1871 52.28 92.6751 52.28ZM103.293 50.192H101.853V53H101.001V46.688H101.853V49.46H103.305L105.525 46.688H106.449L103.965 49.748L106.629 53H105.621L103.293 50.192ZM115.03 46.688V53H114.25V48.008L111.694 52.232H111.31L108.754 47.996V53H107.974V46.688H108.838L111.514 51.236L114.238 46.688H115.03ZM119.902 42.896H120.682L116.722 54.2H115.942L119.902 42.896ZM125.417 46.688V53H124.565V50.372C123.837 50.692 123.121 50.852 122.417 50.852C121.657 50.852 121.065 50.68 120.641 50.336C120.217 49.984 120.005 49.46 120.005 48.764V46.688H120.857V48.716C120.857 49.188 121.009 49.548 121.313 49.796C121.617 50.036 122.037 50.156 122.573 50.156C123.165 50.156 123.829 50 124.565 49.688V46.688H125.417ZM130.009 46.64C130.833 46.64 131.465 46.848 131.905 47.264C132.345 47.672 132.565 48.28 132.565 49.088V53H131.749V52.016C131.557 52.344 131.273 52.6 130.897 52.784C130.529 52.968 130.089 53.06 129.577 53.06C128.873 53.06 128.313 52.892 127.897 52.556C127.481 52.22 127.273 51.776 127.273 51.224C127.273 50.688 127.465 50.256 127.849 49.928C128.241 49.6 128.861 49.436 129.709 49.436H131.713V49.052C131.713 48.508 131.561 48.096 131.257 47.816C130.953 47.528 130.509 47.384 129.925 47.384C129.525 47.384 129.141 47.452 128.773 47.588C128.405 47.716 128.089 47.896 127.825 48.128L127.441 47.492C127.761 47.22 128.145 47.012 128.593 46.868C129.041 46.716 129.513 46.64 130.009 46.64ZM129.709 52.388C130.189 52.388 130.601 52.28 130.945 52.064C131.289 51.84 131.545 51.52 131.713 51.104V50.072H129.733C128.653 50.072 128.113 50.448 128.113 51.2C128.113 51.568 128.253 51.86 128.533 52.076C128.813 52.284 129.205 52.388 129.709 52.388ZM137.473 53.06C136.849 53.06 136.289 52.924 135.793 52.652C135.305 52.38 134.921 52 134.641 51.512C134.361 51.016 134.221 50.46 134.221 49.844C134.221 49.228 134.361 48.676 134.641 48.188C134.921 47.7 135.305 47.32 135.793 47.048C136.289 46.776 136.849 46.64 137.473 46.64C138.017 46.64 138.501 46.748 138.925 46.964C139.357 47.172 139.697 47.48 139.945 47.888L139.309 48.32C139.101 48.008 138.837 47.776 138.517 47.624C138.197 47.464 137.849 47.384 137.473 47.384C137.017 47.384 136.605 47.488 136.237 47.696C135.877 47.896 135.593 48.184 135.385 48.56C135.185 48.936 135.085 49.364 135.085 49.844C135.085 50.332 135.185 50.764 135.385 51.14C135.593 51.508 135.877 51.796 136.237 52.004C136.605 52.204 137.017 52.304 137.473 52.304C137.849 52.304 138.197 52.228 138.517 52.076C138.837 51.924 139.101 51.692 139.309 51.38L139.945 51.812C139.697 52.22 139.357 52.532 138.925 52.748C138.493 52.956 138.009 53.06 137.473 53.06Z" fill="black"/>
<path d="M37.5254 33.1048C37.5254 38.8876 32.813 43.5754 27 43.5754C21.187 43.5754 16.4746 38.8876 16.4746 33.1048C16.4746 27.322 21.187 22.6341 27 22.6341C32.813 22.6341 37.5254 27.322 37.5254 33.1048Z" fill="#C4C4C4"/>
<path d="M24.6744 34.465C24.0218 33.0604 24.627 31.397 26.0195 30.7568C27.4089 30.1179 29.0668 30.7408 29.7194 32.1454L43.4803 39.8174L28.223 35.9233C26.8652 36.4464 25.3029 35.8179 24.6744 34.465Z" fill="#030104"/>
<g filter="url(#filter0_d_1_78)">
<path d="M10.7365 18.7314C15.0808 14.3906 20.8566 12 27 12C33.1435 12 38.9194 14.3906 43.2636 18.7314C47.6077 23.0723 50 28.8437 50 34.9826C50 38.9463 49.0006 42.7557 47.1243 46.1266H42.8255L39.6813 44.3126L41.0699 41.9092L45.1128 44.2418C46.5411 41.463 47.348 38.3153 47.348 34.9826C47.348 34.3928 47.3212 33.8091 47.2717 33.2318L42.4511 34.0811L41.9689 31.3482L46.8462 30.4889C45.9747 26.6438 44.0096 23.2089 41.296 20.5288L37.9915 24.4642L35.864 22.6804L39.1936 18.7154C36.1404 16.4244 32.4238 14.9715 28.3885 14.6986V19.9618H25.6115V14.6986C21.5762 14.9717 17.8596 16.4245 14.8063 18.7155L18.136 22.6804L16.0086 24.4642L12.704 20.5287C9.99049 23.2089 8.02544 26.6438 7.1539 30.4888L12.0311 31.3483L11.5488 34.081L6.72849 33.2316C6.67905 33.809 6.65224 34.3925 6.65224 34.9823C6.65224 38.3153 7.45879 41.4631 8.88732 44.2417L12.9303 41.9093L14.3188 44.3126L11.1747 46.1264H6.87572C4.99926 42.7555 4 38.9461 4 34.9823C3.99989 28.8436 6.3925 23.0721 10.7365 18.7314Z" fill="#030104"/>
</g>
<defs>
<filter id="filter0_d_1_78" x="0" y="12" width="54" height="42.1266" filterUnits="userSpaceOnUse" color-interpolation-filters="sRGB">
<feFlood flood-opacity="0" result="BackgroundImageFix"/>
<feColorMatrix in="SourceAlpha" type="matrix" values="0 0 0 0 0 0 0 0 0 0 0 0 0 0 0 0 0 0 127 0" result="hardAlpha"/>
<feOffset dy="4"/>
<feGaussianBlur stdDeviation="2"/>
<feColorMatrix type="matrix" values="0 0 0 0 0 0 0 0 0 0 0 0 0 0 0 0 0 0 0.25 0"/>
<feBlend mode="normal" in2="BackgroundImageFix" result="effect1_dropShadow_1_78"/>
<feBlend mode="normal" in="SourceGraphic" in2="effect1_dropShadow_1_78" result="shape"/>
</filter>
</defs>
</svg>
