<svg width="146" height="66" viewBox="0 0 146 66" fill="none" xmlns="http://www.w3.org/2000/svg">
<path d="M60.17 18.88C61.78 18.88 63.2267 19.195 64.51 19.825C65.7933 20.4317 66.7967 21.3067 67.52 22.45C68.2433 23.5933 68.605 24.9117 68.605 26.405C68.605 27.9917 68.2083 29.3917 67.415 30.605C66.6217 31.795 65.5483 32.7167 64.195 33.37C62.8417 34.0233 61.325 34.35 59.645 34.35C56.285 34.35 53.6717 33.3 51.805 31.2C49.9617 29.1 49.04 26.09 49.04 22.17C49.04 19.4167 49.5417 17.0717 50.545 15.135C51.5483 13.175 52.9483 11.6933 54.745 10.69C56.565 9.66333 58.665 9.15 61.045 9.15C62.305 9.15 63.4833 9.29 64.58 9.57C65.7 9.82667 66.6683 10.2117 67.485 10.725L65.805 14.155C64.5917 13.3617 63.04 12.965 61.15 12.965C58.7933 12.965 56.95 13.6883 55.62 15.135C54.29 16.5817 53.625 18.67 53.625 21.4V21.435C54.3483 20.595 55.27 19.965 56.39 19.545C57.51 19.1017 58.77 18.88 60.17 18.88ZM59.4 30.78C60.8233 30.78 61.9783 30.4067 62.865 29.66C63.7517 28.89 64.195 27.875 64.195 26.615C64.195 25.3317 63.7517 24.3167 62.865 23.57C61.9783 22.8233 60.7883 22.45 59.295 22.45C57.825 22.45 56.6233 22.8467 55.69 23.64C54.78 24.4333 54.325 25.4367 54.325 26.65C54.325 27.84 54.7683 28.8317 55.655 29.625C56.565 30.395 57.8133 30.78 59.4 30.78ZM81.4134 19.615C83.6767 19.895 85.4034 20.665 86.5934 21.925C87.7834 23.185 88.3784 24.76 88.3784 26.65C88.3784 28.0733 88.0167 29.3683 87.2934 30.535C86.57 31.7017 85.4734 32.635 84.0034 33.335C82.5567 34.0117 80.7834 34.35 78.6834 34.35C76.9334 34.35 75.2417 34.105 73.6084 33.615C71.9984 33.1017 70.6217 32.4017 69.4784 31.515L71.4384 27.98C72.325 28.7267 73.3984 29.3217 74.6584 29.765C75.9417 30.185 77.26 30.395 78.6134 30.395C80.2234 30.395 81.4834 30.0683 82.3934 29.415C83.3267 28.7383 83.7934 27.8283 83.7934 26.685C83.7934 25.5417 83.35 24.655 82.4634 24.025C81.6 23.3717 80.27 23.045 78.4734 23.045H76.2334V19.93L81.7984 13.315H70.6684V9.5H87.3634V12.545L81.4134 19.615ZM108.929 30.15V34H90.8686V30.955L100.599 21.715C101.695 20.665 102.43 19.755 102.804 18.985C103.2 18.1917 103.399 17.41 103.399 16.64C103.399 15.4967 103.014 14.6217 102.244 14.015C101.474 13.4083 100.342 13.105 98.8486 13.105C96.3519 13.105 94.4386 13.9567 93.1086 15.66L89.9236 13.21C90.8802 11.9267 92.1636 10.935 93.7736 10.235C95.4069 9.51167 97.2269 9.15 99.2336 9.15C101.894 9.15 104.017 9.78 105.604 11.04C107.19 12.3 107.984 14.015 107.984 16.185C107.984 17.515 107.704 18.7633 107.144 19.93C106.584 21.0967 105.51 22.4267 103.924 23.92L97.3786 30.15H108.929Z" fill="black"/>
<path d="M123.12 29.72H121.18V34H118.68V23.32H121.18V27.64H123.18L126.34 23.32H129.02L125.14 28.46L129.28 34H126.34L123.12 29.72ZM141.543 34V26.92L137.943 32.88H136.863L133.323 26.9V34H131.043V23.32H133.663L137.463 30L141.443 23.32H143.783L143.803 34H141.543Z" fill="black"/>
<path d="M51.784 49.712C52.232 49.816 52.576 49.996 52.816 50.252C53.064 50.508 53.188 50.82 53.188 51.188C53.188 51.556 53.06 51.884 52.804 52.172C52.556 52.46 52.216 52.684 51.784 52.844C51.352 52.996 50.876 53.072 50.356 53.072C49.9 53.072 49.452 53.008 49.012 52.88C48.572 52.744 48.188 52.548 47.86 52.292L48.148 51.656C48.436 51.872 48.772 52.04 49.156 52.16C49.54 52.28 49.928 52.34 50.32 52.34C50.904 52.34 51.38 52.232 51.748 52.016C52.124 51.792 52.312 51.492 52.312 51.116C52.312 50.78 52.16 50.52 51.856 50.336C51.552 50.144 51.136 50.048 50.608 50.048H49.528V49.424H50.56C51.032 49.424 51.412 49.336 51.7 49.16C51.988 48.976 52.132 48.732 52.132 48.428C52.132 48.092 51.968 47.828 51.64 47.636C51.32 47.444 50.9 47.348 50.38 47.348C49.7 47.348 49.028 47.52 48.364 47.864L48.124 47.204C48.876 46.812 49.656 46.616 50.464 46.616C50.944 46.616 51.376 46.688 51.76 46.832C52.152 46.968 52.456 47.164 52.672 47.42C52.896 47.676 53.008 47.972 53.008 48.308C53.008 48.628 52.896 48.912 52.672 49.16C52.456 49.408 52.16 49.592 51.784 49.712ZM57.2942 46.64C58.1182 46.64 58.7502 46.848 59.1902 47.264C59.6302 47.672 59.8502 48.28 59.8502 49.088V53H59.0342V52.016C58.8422 52.344 58.5582 52.6 58.1822 52.784C57.8142 52.968 57.3742 53.06 56.8622 53.06C56.1582 53.06 55.5982 52.892 55.1822 52.556C54.7662 52.22 54.5582 51.776 54.5582 51.224C54.5582 50.688 54.7502 50.256 55.1342 49.928C55.5262 49.6 56.1462 49.436 56.9942 49.436H58.9982V49.052C58.9982 48.508 58.8462 48.096 58.5422 47.816C58.2382 47.528 57.7942 47.384 57.2102 47.384C56.8102 47.384 56.4262 47.452 56.0582 47.588C55.6902 47.716 55.3742 47.896 55.1102 48.128L54.7262 47.492C55.0462 47.22 55.4302 47.012 55.8782 46.868C56.3262 46.716 56.7982 46.64 57.2942 46.64ZM56.9942 52.388C57.4742 52.388 57.8862 52.28 58.2302 52.064C58.5742 51.84 58.8302 51.52 58.9982 51.104V50.072H57.0182C55.9382 50.072 55.3982 50.448 55.3982 51.2C55.3982 51.568 55.5382 51.86 55.8182 52.076C56.0982 52.284 56.4902 52.388 56.9942 52.388ZM67.7823 46.688V53H66.9303V47.444H62.9703V53H62.1183V46.688H67.7823ZM72.3762 46.64C73.2002 46.64 73.8322 46.848 74.2722 47.264C74.7122 47.672 74.9322 48.28 74.9322 49.088V53H74.1162V52.016C73.9242 52.344 73.6402 52.6 73.2642 52.784C72.8962 52.968 72.4562 53.06 71.9442 53.06C71.2402 53.06 70.6802 52.892 70.2642 52.556C69.8482 52.22 69.6402 51.776 69.6402 51.224C69.6402 50.688 69.8322 50.256 70.2162 49.928C70.6082 49.6 71.2282 49.436 72.0762 49.436H74.0802V49.052C74.0802 48.508 73.9282 48.096 73.6242 47.816C73.3202 47.528 72.8762 47.384 72.2922 47.384C71.8922 47.384 71.5082 47.452 71.1402 47.588C70.7722 47.716 70.4562 47.896 70.1922 48.128L69.8082 47.492C70.1282 47.22 70.5122 47.012 70.9602 46.868C71.4082 46.716 71.8802 46.64 72.3762 46.64ZM72.0762 52.388C72.5562 52.388 72.9682 52.28 73.3122 52.064C73.6562 51.84 73.9122 51.52 74.0802 51.104V50.072H72.1002C71.0202 50.072 70.4802 50.448 70.4802 51.2C70.4802 51.568 70.6202 51.86 70.9002 52.076C71.1802 52.284 71.5722 52.388 72.0762 52.388ZM79.8403 53.06C79.2163 53.06 78.6563 52.924 78.1603 52.652C77.6723 52.38 77.2883 52 77.0083 51.512C76.7283 51.016 76.5883 50.46 76.5883 49.844C76.5883 49.228 76.7283 48.676 77.0083 48.188C77.2883 47.7 77.6723 47.32 78.1603 47.048C78.6563 46.776 79.2163 46.64 79.8403 46.64C80.3843 46.64 80.8683 46.748 81.2923 46.964C81.7243 47.172 82.0643 47.48 82.3123 47.888L81.6763 48.32C81.4683 48.008 81.2043 47.776 80.8843 47.624C80.5643 47.464 80.2163 47.384 79.8403 47.384C79.3843 47.384 78.9723 47.488 78.6043 47.696C78.2443 47.896 77.9603 48.184 77.7523 48.56C77.5523 48.936 77.4523 49.364 77.4523 49.844C77.4523 50.332 77.5523 50.764 77.7523 51.14C77.9603 51.508 78.2443 51.796 78.6043 52.004C78.9723 52.204 79.3843 52.304 79.8403 52.304C80.2163 52.304 80.5643 52.228 80.8843 52.076C81.2043 51.924 81.4683 51.692 81.6763 51.38L82.3123 51.812C82.0643 52.22 81.7243 52.532 81.2923 52.748C80.8603 52.956 80.3763 53.06 79.8403 53.06ZM91.0506 53L89.0466 50.36L87.0306 53H86.0706L88.5666 49.76L86.1906 46.688H87.1506L89.0466 49.16L90.9426 46.688H91.8786L89.5026 49.76L92.0226 53H91.0506ZM95.8004 53.06C95.1924 53.06 94.6444 52.924 94.1564 52.652C93.6684 52.372 93.2844 51.988 93.0044 51.5C92.7244 51.012 92.5844 50.46 92.5844 49.844C92.5844 49.228 92.7244 48.676 93.0044 48.188C93.2844 47.7 93.6684 47.32 94.1564 47.048C94.6444 46.776 95.1924 46.64 95.8004 46.64C96.4084 46.64 96.9564 46.776 97.4444 47.048C97.9324 47.32 98.3124 47.7 98.5844 48.188C98.8644 48.676 99.0044 49.228 99.0044 49.844C99.0044 50.46 98.8644 51.012 98.5844 51.5C98.3124 51.988 97.9324 52.372 97.4444 52.652C96.9564 52.924 96.4084 53.06 95.8004 53.06ZM95.8004 52.304C96.2484 52.304 96.6484 52.204 97.0004 52.004C97.3604 51.796 97.6404 51.504 97.8404 51.128C98.0404 50.752 98.1404 50.324 98.1404 49.844C98.1404 49.364 98.0404 48.936 97.8404 48.56C97.6404 48.184 97.3604 47.896 97.0004 47.696C96.6484 47.488 96.2484 47.384 95.8004 47.384C95.3524 47.384 94.9484 47.488 94.5884 47.696C94.2364 47.896 93.9564 48.184 93.7484 48.56C93.5484 48.936 93.4484 49.364 93.4484 49.844C93.4484 50.324 93.5484 50.752 93.7484 51.128C93.9564 51.504 94.2364 51.796 94.5884 52.004C94.9484 52.204 95.3524 52.304 95.8004 52.304ZM106.946 52.256V54.524H106.142V53H100.49V54.524H99.6861V52.256H100.046C100.47 52.232 100.758 51.92 100.91 51.32C101.062 50.72 101.166 49.88 101.222 48.8L101.306 46.688H105.962V52.256H106.946ZM102.002 48.848C101.962 49.744 101.886 50.484 101.774 51.068C101.662 51.644 101.462 52.04 101.174 52.256H105.11V47.444H102.074L102.002 48.848ZM110.779 46.64C111.603 46.64 112.235 46.848 112.675 47.264C113.115 47.672 113.335 48.28 113.335 49.088V53H112.519V52.016C112.327 52.344 112.043 52.6 111.667 52.784C111.299 52.968 110.859 53.06 110.347 53.06C109.643 53.06 109.083 52.892 108.667 52.556C108.251 52.22 108.043 51.776 108.043 51.224C108.043 50.688 108.235 50.256 108.619 49.928C109.011 49.6 109.631 49.436 110.479 49.436H112.483V49.052C112.483 48.508 112.331 48.096 112.027 47.816C111.723 47.528 111.279 47.384 110.695 47.384C110.295 47.384 109.911 47.452 109.543 47.588C109.175 47.716 108.859 47.896 108.595 48.128L108.211 47.492C108.531 47.22 108.915 47.012 109.363 46.868C109.811 46.716 110.283 46.64 110.779 46.64ZM110.479 52.388C110.959 52.388 111.371 52.28 111.715 52.064C112.059 51.84 112.315 51.52 112.483 51.104V50.072H110.503C109.423 50.072 108.883 50.448 108.883 51.2C108.883 51.568 109.023 51.86 109.303 52.076C109.583 52.284 109.975 52.388 110.479 52.388Z" fill="black"/>
<g filter="url(#filter0_d_1_77)">
<path fill-rule="evenodd" clip-rule="evenodd" d="M21.3113 23.508C22.0047 24.439 23.2427 25.1217 25.2946 24.8469C28.8975 24.3644 31.6855 25.4456 33.3582 27.5167C34.9898 29.5368 35.3643 32.2642 34.6618 34.7102C33.9519 37.1819 32.1264 39.4474 29.2582 40.583C26.3942 41.717 22.6671 41.6599 18.216 39.8717C14.3494 38.3183 12.1258 38.5701 10.9292 39.2703C9.76165 39.9534 9.07789 41.3612 9.00606 43.3528C8.93489 45.3258 9.49503 47.5733 10.458 49.3899C11.4548 51.2703 12.6763 52.3246 13.6957 52.5294L13.1048 55.4706C10.7649 55.0006 8.95819 52.9658 7.80743 50.795C6.62285 48.5604 5.91602 45.7947 6.00801 43.2447C6.09932 40.7132 7.00882 38.0882 9.41418 36.6809C11.7904 35.2906 15.1193 35.3945 19.3343 37.0879C23.2814 38.6736 26.189 38.5716 28.1539 37.7937C30.1147 37.0173 31.3125 35.5041 31.7784 33.882C32.2516 32.2343 31.9543 30.5531 31.0244 29.4017C30.1357 28.3013 28.4726 27.4481 25.6928 27.8203C22.7058 28.2203 20.3325 27.216 18.9054 25.3002C17.5292 23.4527 17.1937 20.9741 17.7342 18.6548C18.28 16.3122 19.7384 14.0164 22.1216 12.4575C24.5164 10.891 27.7478 10.1294 31.744 10.6767L31.3369 13.649C27.9426 13.1841 25.4632 13.8565 23.7639 14.9681C22.0529 16.0873 21.0338 17.7138 20.6559 19.3356C20.2725 20.9807 20.5669 22.5087 21.3113 23.508Z" fill="black" stroke="black" stroke-width="3"/>
<path fill-rule="evenodd" clip-rule="evenodd" d="M31.5133 12.361C31.0533 12.298 30.6067 12.2542 30.1736 12.2284L30.1974 11.8291C30.641 11.8555 31.0978 11.9004 31.5676 11.9647L31.5133 12.361ZM27.487 12.3083C26.5394 12.4294 25.6762 12.6483 24.896 12.9451L24.7538 12.5712C25.5647 12.2628 26.4587 12.0365 27.4363 11.9115L27.487 12.3083ZM22.5651 14.2222C21.8251 14.7793 21.2089 15.4236 20.7144 16.1187L20.3885 15.8868C20.9064 15.1589 21.5511 14.4848 22.3245 13.9026L22.5651 14.2222ZM19.5383 18.492C19.2674 19.3689 19.1549 20.2601 19.1966 21.1098L18.7971 21.1294C18.753 20.2313 18.8721 19.2936 19.1561 18.374L19.5383 18.492ZM19.8617 23.6393C20.2706 24.4114 20.8632 25.0592 21.6351 25.5108L21.4331 25.856C20.5921 25.364 19.9492 24.6592 19.5082 23.8265L19.8617 23.6393ZM25.4671 26.1354C26.0153 26.062 26.5366 26.0289 27.031 26.0327L27.0279 26.4327C26.5535 26.429 26.051 26.4607 25.5202 26.5318C25.0279 26.5978 24.5606 26.6198 24.1189 26.6016L24.1354 26.202C24.5522 26.2191 24.9962 26.1984 25.4671 26.1354ZM30.0887 26.633C31.1283 27.0834 31.9437 27.7615 32.5346 28.5791L32.2104 28.8134C31.6614 28.0538 30.9029 27.4217 29.9297 27.0001L30.0887 26.633ZM33.6511 31.5C33.7732 32.5216 33.6663 33.5879 33.334 34.6067L32.9537 34.4827C33.2685 33.5175 33.3689 32.5097 33.2539 31.5475L33.6511 31.5ZM14.6936 37.5255C13.6425 37.376 12.732 37.3912 11.9491 37.5384L11.8752 37.1452C12.7085 36.9886 13.6637 36.975 14.7499 37.1295L14.6936 37.5255ZM31.7737 37.3109C31.1083 38.0526 30.2724 38.6904 29.2687 39.1628L29.0984 38.8008C30.0534 38.3514 30.846 37.746 31.4759 37.0438L31.7737 37.3109ZM18.7006 38.6654C18.2456 38.4826 17.8073 38.3217 17.3851 38.1815L17.5111 37.8019C17.9416 37.9448 18.3876 38.1086 18.8497 38.2942C19.3381 38.4904 19.8142 38.6632 20.2779 38.8138L20.1543 39.1943C19.6817 39.0407 19.1971 38.8648 18.7006 38.6654ZM9.53944 38.6826C8.87649 39.2772 8.40685 40.0545 8.10782 40.95L7.72841 40.8233C8.04526 39.8745 8.5488 39.0338 9.27236 38.3848L9.53944 38.6826ZM26.2685 39.9792C25.3197 40.08 24.2835 40.0628 23.161 39.9044L23.2169 39.5084C24.3096 39.6625 25.3128 39.6785 26.2263 39.5814L26.2685 39.9792ZM7.70004 43.6573C7.69718 44.555 7.8044 45.4873 8.00519 46.4081L7.61437 46.4934C7.40806 45.5472 7.29708 44.5858 7.30005 43.6561L7.70004 43.6573ZM8.8538 49.0486C9.23517 49.9309 9.69747 50.748 10.2202 51.4495L9.89949 51.6885C9.35588 50.959 8.87868 50.1143 8.48664 49.2074L8.8538 49.0486ZM12.1993 53.3144C12.6017 53.5524 13.0168 53.719 13.4396 53.8039L13.3608 54.1961C12.8882 54.1012 12.4313 53.9163 11.9957 53.6588L12.1993 53.3144Z" fill="white" stroke="black" stroke-width="0.4" stroke-dasharray="3 3"/>
<path d="M17 54.5C17 56.1569 15.6569 57.5 14 57.5C12.3431 57.5 11 56.1569 11 54.5C11 52.8431 12.3431 51.5 14 51.5C15.6569 51.5 17 52.8431 17 54.5Z" fill="#C4C4C4" stroke="black"/>
<path d="M15 54.5C15 55.0523 14.5523 55.5 14 55.5C13.4477 55.5 13 55.0523 13 54.5C13 53.9477 13.4477 53.5 14 53.5C14.5523 53.5 15 53.9477 15 54.5Z" fill="white" stroke="black"/>
<path d="M36 11.5C36 13.1569 34.6569 14.5 33 14.5C31.3431 14.5 30 13.1569 30 11.5C30 9.84315 31.3431 8.5 33 8.5C34.6569 8.5 36 9.84315 36 11.5Z" fill="#C4C4C4" stroke="black"/>
<path d="M34 11.5C34 12.0523 33.5523 12.5 33 12.5C32.4477 12.5 32 12.0523 32 11.5C32 10.9477 32.4477 10.5 33 10.5C33.5523 10.5 34 10.9477 34 11.5Z" fill="white" stroke="black"/>
</g>
<defs>
<filter id="filter0_d_1_77" x="0.5" y="8" width="40" height="58" filterUnits="userSpaceOnUse" color-interpolation-filters="sRGB">
<feFlood flood-opacity="0" result="BackgroundImageFix"/>
<feColorMatrix in="SourceAlpha" type="matrix" values="0 0 0 0 0 0 0 0 0 0 0 0 0 0 0 0 0 0 127 0" result="hardAlpha"/>
<feOffset dy="4"/>
<feGaussianBlur stdDeviation="2"/>
<feColorMatrix type="matrix" values="0 0 0 0 0 0 0 0 0 0 0 0 0 0 0 0 0 0 0.25 0"/>
<feBlend mode="normal" in2="BackgroundImageFix" result="effect1_dropShadow_1_77"/>
<feBlend mode="normal" in="SourceGraphic" in2="effect1_dropShadow_1_77" result="shape"/>
</filter>
</defs>
</svg>
