<svg width="54" height="43" viewBox="0 0 54 43" fill="none" xmlns="http://www.w3.org/2000/svg">
<path d="M37.5254 21.1048C37.5254 26.8876 32.813 31.5754 27 31.5754C21.187 31.5754 16.4746 26.8876 16.4746 21.1048C16.4746 15.322 21.187 10.6341 27 10.6341C32.813 10.6341 37.5254 15.322 37.5254 21.1048Z" fill="#C4C4C4"/>
<path d="M24.6744 22.465C24.0218 21.0604 24.627 19.397 26.0195 18.7568C27.4089 18.1179 29.0668 18.7408 29.7194 20.1454L43.4803 27.8174L28.223 23.9233C26.8652 24.4464 25.3029 23.8179 24.6744 22.465Z" fill="#030104"/>
<g filter="url(#filter0_d_1_44)">
<path d="M10.7365 6.73144C15.0808 2.39058 20.8566 0 27 0C33.1435 0 38.9194 2.39058 43.2636 6.73144C47.6077 11.0723 50 16.8437 50 22.9826C50 26.9463 49.0006 30.7557 47.1243 34.1266H42.8255L39.6813 32.3126L41.0699 29.9092L45.1128 32.2418C46.5411 29.463 47.348 26.3153 47.348 22.9826C47.348 22.3928 47.3212 21.8091 47.2717 21.2318L42.4511 22.0811L41.9689 19.3482L46.8462 18.4889C45.9747 14.6438 44.0096 11.2089 41.296 8.52879L37.9915 12.4642L35.864 10.6804L39.1936 6.71536C36.1404 4.42444 32.4238 2.97148 28.3885 2.69855V7.96182H25.6115V2.69855C21.5762 2.9717 17.8596 4.42454 14.8063 6.71547L18.136 10.6804L16.0086 12.4642L12.704 8.52869C9.99049 11.2089 8.02544 14.6438 7.1539 18.4888L12.0311 19.3483L11.5488 22.081L6.72849 21.2316C6.67905 21.809 6.65224 22.3925 6.65224 22.9823C6.65224 26.3153 7.45879 29.4631 8.88732 32.2417L12.9303 29.9093L14.3188 32.3126L11.1747 34.1264H6.87572C4.99926 30.7555 4 26.9461 4 22.9823C3.99989 16.8436 6.3925 11.0721 10.7365 6.73144Z" fill="#030104"/>
</g>
<defs>
<filter id="filter0_d_1_44" x="0" y="0" width="54" height="42.1266" filterUnits="userSpaceOnUse" color-interpolation-filters="sRGB">
<feFlood flood-opacity="0" result="BackgroundImageFix"/>
<feColorMatrix in="SourceAlpha" type="matrix" values="0 0 0 0 0 0 0 0 0 0 0 0 0 0 0 0 0 0 127 0" result="hardAlpha"/>
<feOffset dy="4"/>
<feGaussianBlur stdDeviation="2"/>
<feColorMatrix type="matrix" values="0 0 0 0 0 0 0 0 0 0 0 0 0 0 0 0 0 0 0.25 0"/>
<feBlend mode="normal" in2="BackgroundImageFix" result="effect1_dropShadow_1_44"/>
<feBlend mode="normal" in="SourceGraphic" in2="effect1_dropShadow_1_44" result="shape"/>
</filter>
</defs>
</svg>
